<svg width="32" height="32" viewBox="0 0 32 32" fill="none" xmlns="http://www.w3.org/2000/svg">
  <!-- Background -->
  <rect width="32" height="32" rx="7" fill="url(#gradient)"/>
  
  <!-- Teal accent blob -->
  <path d="M 6 9 Q 9 6 13 7 Q 16 9 16 13 Q 17 17 14 19 Q 11 21 9 19 Q 6 17 5 13 Q 5 11 6 9 Z" fill="#14b8a6" opacity="0.8"/>
  
  <!-- Timeline bars -->
  <rect x="8" y="17" width="2" height="7" rx="1" fill="#14b8a6"/>
  <rect x="13" y="19" width="2" height="5" rx="1" fill="#06b6d4"/>
  <rect x="18" y="21" width="2" height="3" rx="1" fill="#64748b"/>
  <rect x="23" y="22.5" width="2" height="1.5" rx="1" fill="#f97316"/>
  
  <!-- Timeline base -->
  <rect x="7" y="24.5" width="19" height="0.5" fill="#e2e8f0" opacity="0.4"/>
  
  <!-- Orange dot accent -->
  <circle cx="24" cy="11" r="1.2" fill="#f97316" opacity="0.9"/>
  <circle cx="24" cy="8" r="0.8" fill="#f97316" opacity="0.6"/>
  
  <!-- Gradient definition -->
  <defs>
    <linearGradient id="gradient" x1="0%" y1="0%" x2="100%" y2="100%">
      <stop offset="0%" style="stop-color:#475569;stop-opacity:1" />
      <stop offset="100%" style="stop-color:#1e293b;stop-opacity:1" />
    </linearGradient>
  </defs>
</svg>