<svg width="32" height="32" viewBox="0 0 32 32" fill="none" xmlns="http://www.w3.org/2000/svg">
  <!-- Background -->
  <rect width="32" height="32" rx="7" fill="url(#gradient)"/>
  
  <!-- Teal accent blob -->
  <path d="M 8 7 Q 11 5 15 7 Q 17 9 17 13 Q 17 17 15 19 Q 12 21 10 20 Q 7 18 6 14 Q 6 11 8 7 Z" fill="#14b8a6" opacity="0.9"/>
  
  <!-- Timeline bars -->
  <rect x="10" y="23" width="1.5" height="5" rx="0.75" fill="#14b8a6"/>
  <rect x="13.5" y="25" width="1.5" height="3" rx="0.75" fill="#06b6d4"/>
  <rect x="17" y="26" width="1.5" height="2" rx="0.75" fill="#64748b"/>
  <rect x="20.5" y="26.5" width="1.5" height="1.5" rx="0.75" fill="#f97316"/>
  
  <!-- Timeline base -->
  <rect x="9" y="28.5" width="14" height="0.5" fill="#e2e8f0" opacity="0.4"/>
  
  <!-- Orange dot accent -->
  <circle cx="22" y="12" r="1.5" fill="#f97316"/>
  
  <!-- Gradient definition -->
  <defs>
    <linearGradient id="gradient" x1="0%" y1="0%" x2="100%" y2="100%">
      <stop offset="0%" style="stop-color:#475569;stop-opacity:1" />
      <stop offset="100%" style="stop-color:#1e293b;stop-opacity:1" />
    </linearGradient>
  </defs>
</svg>