<svg width="512" height="512" viewBox="0 0 512 512" fill="none" xmlns="http://www.w3.org/2000/svg">
  <!-- Background rounded square with gradient -->
  <rect width="512" height="512" rx="120" fill="url(#gradient)"/>
  
  <!-- Teal shape (left organic blob) -->
  <path d="M 100 140 Q 140 100 200 120 Q 240 140 250 200 Q 260 260 220 300 Q 180 330 140 310 Q 90 280 80 220 Q 70 170 100 140 Z" fill="#14b8a6" opacity="0.85"/>
  
  <!-- Text: Timeline -->
  <text x="155" y="200" font-family="Arial, sans-serif" font-size="52" font-weight="bold" fill="white" letter-spacing="1">
    Timeline
  </text>
  
  <!-- Timeline bars container -->
  <g>
    <!-- Timeline base line -->
    <rect x="120" y="395" width="280" height="3" fill="#e2e8f0" opacity="0.4"/>
    
    <!-- Timeline tick marks -->
    <rect x="120" y="388" width="3" height="14" fill="#e2e8f0" opacity="0.4"/>
    <rect x="190" y="388" width="3" height="14" fill="#e2e8f0" opacity="0.4"/>
    <rect x="260" y="388" width="3" height="14" fill="#e2e8f0" opacity="0.4"/>
    <rect x="330" y="388" width="3" height="14" fill="#e2e8f0" opacity="0.4"/>
    <rect x="400" y="388" width="3" height="14" fill="#e2e8f0" opacity="0.4"/>
    
    <!-- Bar 1 - Teal (tallest) -->
    <rect x="140" y="270" width="32" height="118" rx="16" fill="#14b8a6">
      <animate attributeName="height" values="0;118" dur="0.8s" fill="freeze"/>
      <animate attributeName="y" values="388;270" dur="0.8s" fill="freeze"/>
    </rect>
    
    <!-- Bar 2 - Cyan (medium-tall) -->
    <rect x="210" y="310" width="32" height="78" rx="16" fill="#06b6d4">
      <animate attributeName="height" values="0;78" dur="0.8s" begin="0.1s" fill="freeze"/>
      <animate attributeName="y" values="388;310" dur="0.8s" begin="0.1s" fill="freeze"/>
    </rect>
    
    <!-- Bar 3 - Gray (medium) -->
    <rect x="280" y="335" width="32" height="53" rx="16" fill="#64748b">
      <animate attributeName="height" values="0;53" dur="0.8s" begin="0.2s" fill="freeze"/>
      <animate attributeName="y" values="388;335" dur="0.8s" begin="0.2s" fill="freeze"/>
    </rect>
    
    <!-- Bar 4 - Orange (short) -->
    <rect x="350" y="358" width="32" height="30" rx="16" fill="#f97316">
      <animate attributeName="height" values="0;30" dur="0.8s" begin="0.3s" fill="freeze"/>
      <animate attributeName="y" values="388;358" dur="0.8s" begin="0.3s" fill="freeze"/>
    </rect>
  </g>
  
  <!-- Dots for accent -->
  <circle cx="380" cy="180" r="18" fill="#f97316" opacity="0.9">
    <animate attributeName="opacity" values="0;0.9" dur="0.6s" begin="0.4s" fill="freeze"/>
  </circle>
  <circle cx="380" cy="135" r="12" fill="#f97316" opacity="0.6">
    <animate attributeName="opacity" values="0;0.6" dur="0.6s" begin="0.5s" fill="freeze"/>
  </circle>
  
  <!-- Gradient definition -->
  <defs>
    <linearGradient id="gradient" x1="0%" y1="0%" x2="100%" y2="100%">
      <stop offset="0%" style="stop-color:#475569;stop-opacity:1" />
      <stop offset="100%" style="stop-color:#1e293b;stop-opacity:1" />
    </linearGradient>
  </defs>
</svg>