<svg width="512" height="512" viewBox="0 0 512 512" fill="none" xmlns="http://www.w3.org/2000/svg">
  <!-- Background rounded square with gradient -->
  <rect width="512" height="512" rx="120" fill="url(#gradient)"/>
  
  <!-- Teal shape (left organic blob) -->
  <path d="M 140 120 Q 180 90 240 120 Q 280 150 280 220 Q 280 280 240 310 Q 200 340 160 320 Q 120 300 110 240 Q 100 180 140 120 Z" fill="#14b8a6" opacity="0.95"/>
  
  <!-- Timeline bars container -->
  <g>
    <!-- Timeline base line -->
    <rect x="150" y="370" width="220" height="2" fill="#e2e8f0" opacity="0.3"/>
    
    <!-- Timeline tick marks -->
    <rect x="150" y="365" width="2" height="12" fill="#e2e8f0" opacity="0.4"/>
    <rect x="205" y="365" width="2" height="12" fill="#e2e8f0" opacity="0.4"/>
    <rect x="260" y="365" width="2" height="12" fill="#e2e8f0" opacity="0.4"/>
    <rect x="315" y="365" width="2" height="12" fill="#e2e8f0" opacity="0.4"/>
    <rect x="370" y="365" width="2" height="12" fill="#e2e8f0" opacity="0.4"/>
    
    <!-- Bar 1 - Teal (tallest) -->
    <rect x="165" y="280" width="24" height="85" rx="12" fill="#14b8a6">
      <animate attributeName="height" values="0;85" dur="0.8s" fill="freeze"/>
      <animate attributeName="y" values="365;280" dur="0.8s" fill="freeze"/>
    </rect>
    
    <!-- Bar 2 - Cyan (medium-tall) -->
    <rect x="220" y="310" width="24" height="55" rx="12" fill="#06b6d4">
      <animate attributeName="height" values="0;55" dur="0.8s" begin="0.1s" fill="freeze"/>
      <animate attributeName="y" values="365;310" dur="0.8s" begin="0.1s" fill="freeze"/>
    </rect>
    
    <!-- Bar 3 - Gray (medium) -->
    <rect x="275" y="325" width="24" height="40" rx="12" fill="#64748b">
      <animate attributeName="height" values="0;40" dur="0.8s" begin="0.2s" fill="freeze"/>
      <animate attributeName="y" values="365;325" dur="0.8s" begin="0.2s" fill="freeze"/>
    </rect>
    
    <!-- Bar 4 - Orange (short) -->
    <rect x="330" y="340" width="24" height="25" rx="12" fill="#f97316">
      <animate attributeName="height" values="0;25" dur="0.8s" begin="0.3s" fill="freeze"/>
      <animate attributeName="y" values="365;340" dur="0.8s" begin="0.3s" fill="freeze"/>
    </rect>
  </g>
  
  <!-- Dots for accent -->
  <circle cx="355" y="195" r="16" fill="#f97316" opacity="0.9">
    <animate attributeName="opacity" values="0;0.9" dur="0.6s" begin="0.4s" fill="freeze"/>
  </circle>
  <circle cx="355" y="155" r="10" fill="#f97316" opacity="0.5">
    <animate attributeName="opacity" values="0;0.5" dur="0.6s" begin="0.5s" fill="freeze"/>
  </circle>
  
  <!-- Text: Timeline -->
  <text x="160" y="210" font-family="Arial, sans-serif" font-size="46" font-weight="bold" fill="white" letter-spacing="1">
    Timeline
  </text>
  
  <!-- Gradient definition -->
  <defs>
    <linearGradient id="gradient" x1="0%" y1="0%" x2="100%" y2="100%">
      <stop offset="0%" style="stop-color:#475569;stop-opacity:1" />
      <stop offset="100%" style="stop-color:#1e293b;stop-opacity:1" />
    </linearGradient>
  </defs>
</svg>