<svg width="512" height="512" viewBox="0 0 512 512" fill="none" xmlns="http://www.w3.org/2000/svg">
  <!-- Dark slate background -->
  <rect width="512" height="512" rx="120" fill="#475569"/>
  
  <!-- Teal left rounded shape -->
  <path d="M 120 0 L 240 0 Q 280 0 280 40 L 280 150 Q 280 200 240 240 L 180 300 Q 140 340 140 400 L 140 472 Q 140 512 100 512 L 40 512 Q 0 512 0 472 L 0 120 Q 0 0 120 0 Z" fill="#4EB7A7" clip-path="url(#rounded)"/>
  
  <!-- Text: Timeline -->
  <text x="157" y="200" font-family="-apple-system, system-ui, sans-serif" font-size="50" font-weight="600" fill="white">
    Timeline
  </text>
  
  <!-- Timeline bars with base -->
  <g>
    <!-- White timeline base line with tick marks -->
    <rect x="150" y="368" width="220" height="3" fill="white"/>
    <rect x="150" y="363" width="3" height="13" fill="white"/>
    <rect x="205" y="363" width="3" height="13" fill="white"/>
    <rect x="260" y="363" width="3" height="13" fill="white"/>
    <rect x="315" y="363" width="3" height="13" fill="white"/>
    <rect x="370" y="363" width="3" height="13" fill="white"/>
    
    <!-- Bar 1 - Teal (tallest) -->
    <rect x="234" y="280" width="28" height="83" rx="14" fill="#4EB7A7">
      <animate attributeName="height" values="0;83" dur="0.5s" fill="freeze"/>
      <animate attributeName="y" values="363;280" dur="0.5s" fill="freeze"/>
    </rect>
    
    <!-- Bar 2 - Gray/Blue (medium) -->
    <rect x="284" y="310" width="28" height="53" rx="14" fill="#8B9AAE">
      <animate attributeName="height" values="0;53" dur="0.5s" begin="0.1s" fill="freeze"/>
      <animate attributeName="y" values="363;310" dur="0.5s" begin="0.1s" fill="freeze"/>
    </rect>
    
    <!-- Bar 3 - Orange (shortest) -->
    <rect x="334" y="328" width="28" height="35" rx="14" fill="#F97316">
      <animate attributeName="height" values="0;35" dur="0.5s" begin="0.2s" fill="freeze"/>
      <animate attributeName="y" values="363;328" dur="0.5s" begin="0.2s" fill="freeze"/>
    </rect>
  </g>
  
  <!-- Orange dots on the right -->
  <circle cx="337" cy="190" r="15" fill="#F97316">
    <animate attributeName="opacity" values="0;1" dur="0.4s" begin="0.3s" fill="freeze"/>
  </circle>
  <circle cx="337" cy="240" r="12" fill="#FB923C" opacity="0.7">
    <animate attributeName="opacity" values="0;0.7" dur="0.4s" begin="0.4s" fill="freeze"/>
  </circle>
  
  <!-- Clipping for rounded corners -->
  <defs>
    <clipPath id="rounded">
      <rect width="512" height="512" rx="120"/>
    </clipPath>
  </defs>
  
  <!-- Gradient definition -->
  <defs>
    <linearGradient id="gradient" x1="0%" y1="0%" x2="100%" y2="100%">
      <stop offset="0%" style="stop-color:#475569;stop-opacity:1" />
      <stop offset="100%" style="stop-color:#1e293b;stop-opacity:1" />
    </linearGradient>
  </defs>
</svg>